# xmcd CD database file
#
# Track frame offsets:
#	150
#	13003
#	25179
#	37365
#	49184
#	61171
#	74514
#	85670
#	99978
#	111759
#	125201
#	134793
#	148442
#	161020
#	172855
#	182937
#	193703
#	204685
#	214875
#	225991
#	238522
#	251744
#	263821
#	279649
#	294624
#	311122
#
# Disc length: 4308 seconds
#
# Revision: 0
# Processed by: cddbd v1.4PL0 Copyright (c) Steve Scherf et al.
# Submitted via: CDex 1.51
#
DISCID=9a10d21a
DTITLE=Banda El Recodo - Nuestros 26 Mejores Exitos
DYEAR=1900
DGENRE=Country
TTITLE0=Pena Tras Pena
TTITLE1=Vida Prestada
TTITLE2=Vas A Pagar Lo Que Debes
TTITLE3=Las Lagrimas De Un Hombre
TTITLE4=Carta Jugada
TTITLE5=Clave Privada
TTITLE6=Voy A Tirarme A Los Vicios
TTITLE7=No Se La Van A Acabar
TTITLE8=Paloma Sin Nido
TTITLE9=Fue Tan Poco Tu Cariño
TTITLE10=Busca Otro Amor
TTITLE11=La Cheyene Del Año
TTITLE12=Las Dos Hectarias
TTITLE13=Luis Pulido
TTITLE14=Todas Mis Lagrimas
TTITLE15=El Comerciante
TTITLE16=Enseñame A Olvidar
TTITLE17=El Golpe Traidor
TTITLE18=Ni Con Mil Amores
TTITLE19=No Mas Por Tu Culpa
TTITLE20=Te Voy A Olvidar
TTITLE21=La Reyna Es El Rey
TTITLE22=Te Quejas De Quererme
TTITLE23=Tengo Que Olvidar
TTITLE24=Que Solo Estoy Sin Ti
TTITLE25=Tiro De Gracia
EXTD=
EXTT0=
EXTT1=
EXTT2=
EXTT3=
EXTT4=
EXTT5=
EXTT6=
EXTT7=
EXTT8=
EXTT9=
EXTT10=
EXTT11=
EXTT12=
EXTT13=
EXTT14=
EXTT15=
EXTT16=
EXTT17=
EXTT18=
EXTT19=
EXTT20=
EXTT21=
EXTT22=
EXTT23=
EXTT24=
EXTT25=
PLAYORDER=
